<svg id="Layer_2" data-name="Layer 2" xmlns="http://www.w3.org/2000/svg" viewBox="0 0 189.15 39.2"><defs><style>.cls-1{font-size:18.6px;font-family:'Montserrat', sans-serif;, System Font;}.cls-2{stroke:#000;stroke-miterlimit:10;stroke-width:0.15px;}</style></defs><title>penguin 0.1</title><text class="cls-1" transform="translate(35.74 15.86)">PENGUIN HOUSE<tspan x="0" y="15.5">DESIGNS ©</tspan></text><circle cx="15.96" cy="3.63" r="0.78"/><circle cx="15.96" cy="3.63" r="0.78"/><path class="cls-2" d="M216.78,268.76H203.27a4.61,4.61,0,0,0-4.65,3.06c.17-.18,1.94-2.28,3.91-2.28H215.8s.53,0,.34.37l-1.95,3.28s.9,3.94,1.68,14.39a0,0,0,0,0,.08,0,106.76,106.76,0,0,0-.69-14.25.37.37,0,0,1,0-.23c.7-1.23,1.34-2.46,1.91-3.69A.48.48,0,0,0,216.78,268.76Z" transform="translate(-193.42 -268.4)"/><path d="M210.29,290.82c-2-1-4-1.83-6-2.67l-.79-.33a9.43,9.43,0,0,1-5.7-5.81c-.1-.32-.22-.63-.34-1a138,138,0,0,0-.06,14.51c.07,1.43-3.52,4.86-3.89,5.32-.21.26,0,.67.4.67h16.53a5.63,5.63,0,0,0,5.64-5c0-.22,0-.43,0-.65A13.18,13.18,0,0,0,210.29,290.82Z" transform="translate(-193.42 -268.4)"/><path d="M217.37,292.95a13.94,13.94,0,0,0-2.22-4.84,16.19,16.19,0,0,0-6.6-5.3,31.37,31.37,0,0,1-7.11-4.47,10.65,10.65,0,0,1-1.8-2,7.64,7.64,0,0,1-1.41-3.95,5.43,5.43,0,0,0-.25,1.07q-.3,2.8-.49,5.62v.12c.3.77.6,1.54.86,2.32a8.25,8.25,0,0,0,1.14,2.26,9.54,9.54,0,0,0,4.33,3.35c2.29,1,4.59,1.94,6.83,3a13.8,13.8,0,0,1,6.31,5.71.33.33,0,0,0,.34.17h0a.33.33,0,0,0,.28-.35A14.14,14.14,0,0,0,217.37,292.95Z" transform="translate(-193.42 -268.4)"/></svg>
